<?xml version="1.0" encoding="UTF-8" standalone="no"?>
<!DOCTYPE svg PUBLIC "-//W3C//DTD SVG 1.1//EN"
 "http://www.w3.org/Graphics/SVG/1.1/DTD/svg11.dtd">
<!-- Generated by graphviz version 2.40.1 (20161225.0304)
 -->
<!-- Title: HypothalamusPipuitoryAxis Pages: 1 -->
<svg width="197pt" height="150pt"
 viewBox="0.00 0.00 196.90 150.40" xmlns="http://www.w3.org/2000/svg" xmlns:xlink="http://www.w3.org/1999/xlink">
<g id="graph0" class="graph" transform="scale(1 1) rotate(0) translate(4 146.4)">
<title>HypothalamusPipuitoryAxis</title>
<polygon fill="#ffffff" stroke="transparent" points="-4,4 -4,-146.4 192.8987,-146.4 192.8987,4 -4,4"/>
<text text-anchor="start" x="17.2106" y="-8.2" font-family="Times,serif" font-size="14.00" fill="#000000">下丘脑&#45;垂体&#45;靶器官轴</text>
<!-- 下丘脑神经分泌细胞 -->
<g id="node1" class="node">
<title>下丘脑神经分泌细胞</title>
<ellipse fill="none" stroke="#000000" cx="94.4493" cy="-124.4" rx="94.3987" ry="18"/>
<text text-anchor="middle" x="94.4493" y="-120.2" font-family="Consolas" font-size="14.00" fill="#000000">下丘脑神经分泌细胞</text>
</g>
<!-- 腺垂体 -->
<g id="node2" class="node">
<title>腺垂体</title>
<ellipse fill="none" stroke="#000000" cx="94.4493" cy="-42.8" rx="45.2304" ry="18"/>
<text text-anchor="middle" x="94.4493" y="-38.6" font-family="Consolas" font-size="14.00" fill="#000000">腺垂体</text>
</g>
<!-- 下丘脑神经分泌细胞&#45;&gt;腺垂体 -->
<g id="edge1" class="edge">
<title>下丘脑神经分泌细胞&#45;&gt;腺垂体</title>
<path fill="none" stroke="#ff0000" d="M78.6653,-106.5204C74.779,-101.0686 71.1522,-94.8112 69.1229,-88.4 66.9932,-81.6712 68.5076,-74.813 71.6447,-68.5278"/>
<polygon fill="#ff0000" stroke="#ff0000" points="74.7717,-70.1319 77.1665,-59.8112 68.8584,-66.3859 74.7717,-70.1319"/>
<text text-anchor="middle" x="84.1125" y="-81.2" font-family="Consolas" font-size="8.00" fill="#000000">释放激素</text>
</g>
<!-- 下丘脑神经分泌细胞&#45;&gt;腺垂体 -->
<g id="edge2" class="edge">
<title>下丘脑神经分泌细胞&#45;&gt;腺垂体</title>
<path fill="none" stroke="#0000ff" d="M97.2386,-106.2239C98.2119,-97.8778 98.9503,-87.8458 98.4493,-78.8 98.3144,-76.363 98.1284,-73.8375 97.9099,-71.3063"/>
<polygon fill="#0000ff" stroke="#0000ff" points="101.3645,-70.679 96.8769,-61.0815 94.3999,-71.3826 101.3645,-70.679"/>
<text text-anchor="middle" x="119.9241" y="-81.2" font-family="Consolas" font-size="8.00" fill="#000000">释放抑制激素</text>
</g>
</g>
</svg>
