<?xml version="1.0" encoding="UTF-8" standalone="no"?>
<!DOCTYPE svg PUBLIC "-//W3C//DTD SVG 1.1//EN"
 "http://www.w3.org/Graphics/SVG/1.1/DTD/svg11.dtd">
<!-- Generated by graphviz version 2.40.1 (20161225.0304)
 -->
<!-- Title: HypothalamusPipuitoryAxis Pages: 1 -->
<svg width="269pt" height="541pt"
 viewBox="0.00 0.00 268.65 541.20" xmlns="http://www.w3.org/2000/svg" xmlns:xlink="http://www.w3.org/1999/xlink">
<g id="graph0" class="graph" transform="scale(1 1) rotate(0) translate(4 537.2)">
<title>HypothalamusPipuitoryAxis</title>
<polygon fill="#ffffff" stroke="transparent" points="-4,4 -4,-537.2 264.6502,-537.2 264.6502,4 -4,4"/>
<text text-anchor="start" x="53.0864" y="-8.2" font-family="Times,serif" font-size="14.00" fill="#000000">下丘脑&#45;垂体&#45;靶器官轴</text>
<!-- 下丘脑神经分泌细胞 -->
<g id="node1" class="node">
<title>下丘脑神经分泌细胞</title>
<polygon fill="none" stroke="#000000" points="199.087,-533.2 62.2342,-533.2 62.2342,-497.2 199.087,-497.2 199.087,-533.2"/>
<text text-anchor="middle" x="130.6606" y="-511" font-family="Consolas" font-size="14.00" fill="#000000">下丘脑神经分泌细胞</text>
</g>
<!-- 释放激素 -->
<g id="node7" class="node">
<title>释放激素</title>
<polygon fill="none" stroke="#ff0000" stroke-dasharray="1,5" points="67.4826,-451.6 -.1614,-451.6 -.1614,-415.6 67.4826,-415.6 67.4826,-451.6"/>
<text text-anchor="middle" x="33.6606" y="-429.4" font-family="Consolas" font-size="14.00" fill="#000000">释放激素</text>
</g>
<!-- 下丘脑神经分泌细胞&#45;&gt;释放激素 -->
<g id="edge1" class="edge">
<title>下丘脑神经分泌细胞&#45;&gt;释放激素</title>
<path fill="none" stroke="#a020f0" d="M100.0166,-497.053C91.8118,-491.6901 83.148,-485.5453 75.6606,-479.2 68.6966,-473.2983 61.7371,-466.3021 55.5434,-459.5843"/>
<polygon fill="#a020f0" stroke="#a020f0" points="57.9483,-457.0233 48.67,-451.9083 52.7335,-461.693 57.9483,-457.0233"/>
</g>
<!-- 释放抑制激素 -->
<g id="node8" class="node">
<title>释放抑制激素</title>
<polygon fill="none" stroke="#0000ff" stroke-dasharray="1,5" points="176.3225,-451.6 84.9987,-451.6 84.9987,-415.6 176.3225,-415.6 176.3225,-451.6"/>
<text text-anchor="middle" x="130.6606" y="-429.4" font-family="Consolas" font-size="14.00" fill="#000000">释放抑制激素</text>
</g>
<!-- 下丘脑神经分泌细胞&#45;&gt;释放抑制激素 -->
<g id="edge4" class="edge">
<title>下丘脑神经分泌细胞&#45;&gt;释放抑制激素</title>
<path fill="none" stroke="#a020f0" d="M130.6606,-497.0903C130.6606,-486.7371 130.6606,-473.5258 130.6606,-461.8383"/>
<polygon fill="#a020f0" stroke="#a020f0" points="134.1607,-461.659 130.6606,-451.6591 127.1607,-461.6591 134.1607,-461.659"/>
</g>
<!-- 腺垂体 -->
<g id="node2" class="node">
<title>腺垂体</title>
<polygon fill="none" stroke="#000000" points="153.4282,-370 87.893,-370 87.893,-334 153.4282,-334 153.4282,-370"/>
<text text-anchor="middle" x="120.6606" y="-347.8" font-family="Consolas" font-size="14.00" fill="#000000">腺垂体</text>
</g>
<!-- 促激素 -->
<g id="node5" class="node">
<title>促激素</title>
<polygon fill="none" stroke="#000000" stroke-dasharray="1,5" points="213.6606,-288.4 159.6606,-288.4 159.6606,-252.4 213.6606,-252.4 213.6606,-288.4"/>
<text text-anchor="middle" x="186.6606" y="-266.2" font-family="Consolas" font-size="14.00" fill="#000000">促激素</text>
</g>
<!-- 腺垂体&#45;&gt;促激素 -->
<g id="edge7" class="edge">
<title>腺垂体&#45;&gt;促激素</title>
<path fill="none" stroke="#000000" d="M135.3081,-333.8903C144.1947,-322.9033 155.6848,-308.6974 165.5424,-296.5098"/>
<polygon fill="#000000" stroke="#000000" points="168.4866,-298.4352 172.054,-288.4591 163.044,-294.0331 168.4866,-298.4352"/>
</g>
<!-- 靶腺激素 -->
<g id="node6" class="node">
<title>靶腺激素</title>
<polygon fill="none" stroke="#000000" stroke-dasharray="1,5" points="192.5896,-133.8 114.7316,-133.8 114.7316,-97.8 192.5896,-97.8 192.5896,-133.8"/>
<text text-anchor="middle" x="153.6606" y="-111.6" font-family="Consolas" font-size="14.00" fill="#000000">靶腺激素</text>
</g>
<!-- 腺垂体&#45;&gt;靶腺激素 -->
<g id="edge11" class="edge">
<title>腺垂体&#45;&gt;靶腺激素</title>
<path fill="none" stroke="#000000" d="M103.6978,-333.6976C83.433,-309.557 53.5442,-265.3756 64.4342,-224.8 74.1499,-188.5998 81.9237,-179.9592 106.6606,-151.8 110.1329,-147.8473 114.0957,-144.0361 118.214,-140.4676"/>
<polygon fill="#000000" stroke="#000000" points="120.6949,-142.961 126.2373,-133.9314 116.2737,-137.5339 120.6949,-142.961"/>
<text text-anchor="middle" x="81.7738" y="-227.2" font-family="Consolas" font-size="8.00" fill="#000000">MSH/PRL</text>
</g>
<!-- 靶腺体 -->
<g id="node3" class="node">
<title>靶腺体</title>
<polygon fill="none" stroke="#000000" points="224.3753,-206.8 148.9459,-206.8 148.9459,-170.8 224.3753,-170.8 224.3753,-206.8"/>
<text text-anchor="middle" x="186.6606" y="-184.6" font-family="Consolas" font-size="14.00" fill="#000000">靶腺体</text>
</g>
<!-- 靶腺体&#45;&gt;靶腺激素 -->
<g id="edge9" class="edge">
<title>靶腺体&#45;&gt;靶腺激素</title>
<path fill="none" stroke="#000000" d="M178.5033,-170.7551C174.7352,-162.4196 170.1794,-152.3416 166.0036,-143.1042"/>
<polygon fill="#000000" stroke="#000000" points="169.147,-141.5608 161.8384,-133.8904 162.7684,-144.4443 169.147,-141.5608"/>
</g>
<!-- 靶组织 -->
<g id="node4" class="node">
<title>靶组织</title>
<polygon fill="none" stroke="#000000" points="185.6078,-60.8 121.7134,-60.8 121.7134,-24.8 185.6078,-24.8 185.6078,-60.8"/>
<text text-anchor="middle" x="153.6606" y="-38.6" font-family="Consolas" font-size="14.00" fill="#000000">靶组织</text>
</g>
<!-- 促激素&#45;&gt;下丘脑神经分泌细胞 -->
<g id="edge6" class="edge">
<title>促激素&#45;&gt;下丘脑神经分泌细胞</title>
<path fill="none" stroke="#a020f0" d="M190.5857,-288.6338C196.9451,-322.1694 206.7862,-395.3499 185.6606,-451.6 180.2917,-465.8957 170.1267,-479.1279 159.9818,-489.7787"/>
<polygon fill="#a020f0" stroke="#a020f0" points="157.2877,-487.522 152.6672,-497.0562 162.2248,-492.4843 157.2877,-487.522"/>
<text text-anchor="middle" x="201.6554" y="-390.4" font-family="Consolas" font-size="8.00" fill="#000000">[&#45;]</text>
</g>
<!-- 促激素&#45;&gt;靶腺体 -->
<g id="edge8" class="edge">
<title>促激素&#45;&gt;靶腺体</title>
<path fill="none" stroke="#000000" d="M186.6606,-252.2903C186.6606,-241.9371 186.6606,-228.7258 186.6606,-217.0383"/>
<polygon fill="#000000" stroke="#000000" points="190.1607,-216.859 186.6606,-206.8591 183.1607,-216.8591 190.1607,-216.859"/>
</g>
<!-- 靶腺激素&#45;&gt;下丘脑神经分泌细胞 -->
<g id="edge13" class="edge">
<title>靶腺激素&#45;&gt;下丘脑神经分泌细胞</title>
<path fill="none" stroke="#a020f0" d="M192.788,-127.3822C220.4602,-138.2626 252.6606,-157.6219 252.6606,-188.8 252.6606,-433.6 252.6606,-433.6 252.6606,-433.6 252.6606,-461.4088 230.4893,-480.3371 205.05,-492.9027"/>
<polygon fill="#a020f0" stroke="#a020f0" points="203.5716,-489.7301 195.9465,-497.0861 206.4945,-496.0907 203.5716,-489.7301"/>
<text text-anchor="middle" x="256.6554" y="-308.8" font-family="Consolas" font-size="8.00" fill="#000000">[&#45;]</text>
</g>
<!-- 靶腺激素&#45;&gt;腺垂体 -->
<g id="edge12" class="edge">
<title>靶腺激素&#45;&gt;腺垂体</title>
<path fill="none" stroke="#a020f0" d="M148.3248,-133.9886C145.3796,-144.6348 141.8796,-158.3848 139.6606,-170.8 130.078,-224.4147 124.7904,-287.8811 122.3553,-323.6912"/>
<polygon fill="#a020f0" stroke="#a020f0" points="118.8495,-323.6683 121.6896,-333.8753 125.8346,-324.125 118.8495,-323.6683"/>
<text text-anchor="middle" x="134.6554" y="-227.2" font-family="Consolas" font-size="8.00" fill="#000000">[&#45;]</text>
</g>
<!-- 靶腺激素&#45;&gt;靶组织 -->
<g id="edge10" class="edge">
<title>靶腺激素&#45;&gt;靶组织</title>
<path fill="none" stroke="#000000" d="M153.6606,-97.7551C153.6606,-89.6828 153.6606,-79.9764 153.6606,-70.9817"/>
<polygon fill="#000000" stroke="#000000" points="157.1607,-70.8903 153.6606,-60.8904 150.1607,-70.8904 157.1607,-70.8903"/>
</g>
<!-- 释放激素&#45;&gt;下丘脑神经分泌细胞 -->
<g id="edge3" class="edge">
<title>释放激素&#45;&gt;下丘脑神经分泌细胞</title>
<path fill="none" stroke="#a020f0" d="M55.1279,-451.6591C68.6785,-463.0584 86.3659,-477.9376 101.218,-490.4318"/>
<polygon fill="#a020f0" stroke="#a020f0" points="99.2276,-493.3312 109.1332,-497.0903 103.7339,-487.9745 99.2276,-493.3312"/>
<text text-anchor="middle" x="89.6554" y="-472" font-family="Consolas" font-size="8.00" fill="#000000">[&#45;]</text>
</g>
<!-- 释放激素&#45;&gt;腺垂体 -->
<g id="edge2" class="edge">
<title>释放激素&#45;&gt;腺垂体</title>
<path fill="none" stroke="#a020f0" d="M52.9687,-415.4903C65.0208,-404.1863 80.7055,-389.4751 93.9419,-377.0603"/>
<polygon fill="#a020f0" stroke="#a020f0" points="96.507,-379.453 101.4065,-370.0591 91.7182,-374.3473 96.507,-379.453"/>
<text text-anchor="middle" x="85.5794" y="-390.4" font-family="Consolas" font-size="8.00" fill="#000000">[+]</text>
</g>
<!-- 释放抑制激素&#45;&gt;腺垂体 -->
<g id="edge5" class="edge">
<title>释放抑制激素&#45;&gt;腺垂体</title>
<path fill="none" stroke="#a020f0" d="M128.4413,-415.4903C127.1725,-405.1371 125.5535,-391.9258 124.1212,-380.2383"/>
<polygon fill="#a020f0" stroke="#a020f0" points="127.5642,-379.559 122.8737,-370.0591 120.6162,-380.4106 127.5642,-379.559"/>
<text text-anchor="middle" x="129.6554" y="-390.4" font-family="Consolas" font-size="8.00" fill="#000000">[&#45;]</text>
</g>
</g>
</svg>
