<?xml version="1.0" encoding="UTF-8" standalone="no"?>
<!DOCTYPE svg PUBLIC "-//W3C//DTD SVG 1.1//EN"
 "http://www.w3.org/Graphics/SVG/1.1/DTD/svg11.dtd">
<!-- Generated by graphviz version 2.40.1 (20161225.0304)
 -->
<!-- Title: ProteinDigest Pages: 1 -->
<svg width="443pt" height="367pt"
 viewBox="0.00 0.00 443.00 367.20" xmlns="http://www.w3.org/2000/svg" xmlns:xlink="http://www.w3.org/1999/xlink">
<g id="graph0" class="graph" transform="scale(1 1) rotate(0) translate(4 363.2)">
<title>ProteinDigest</title>
<polygon fill="#ffffff" stroke="transparent" points="-4,4 -4,-363.2 439,-363.2 439,4 -4,4"/>
<text text-anchor="start" x="146.9582" y="-8.2" font-family="Times,serif" font-size="14.00" fill="#000000">含氮物质在瘤胃内的消化</text>
<g id="clust1" class="cluster">
<title>cluster_0</title>
<polygon fill="none" stroke="#000000" points="49,-274.4 49,-351.2 425,-351.2 425,-274.4 49,-274.4"/>
<text text-anchor="middle" x="237" y="-334.6" font-family="Times,serif" font-size="14.00" fill="#000000">食管</text>
</g>
<g id="clust3" class="cluster">
<title>cluster_2</title>
<polygon fill="none" stroke="#000000" points="357,-32.8 357,-109.6 427,-109.6 427,-32.8 357,-32.8"/>
<text text-anchor="middle" x="392" y="-93" font-family="Times,serif" font-size="14.00" fill="#000000">血液</text>
</g>
<g id="clust2" class="cluster">
<title>cluster_1</title>
<polygon fill="none" stroke="#000000" points="14,-117.6 14,-266.4 298,-266.4 298,-117.6 14,-117.6"/>
<text text-anchor="middle" x="156" y="-249.8" font-family="Times,serif" font-size="14.00" fill="#000000">瘤胃</text>
</g>
<g id="clust4" class="cluster">
<title>cluster_3</title>
<polygon fill="none" stroke="#000000" points="8,-32.8 8,-109.6 298,-109.6 298,-32.8 8,-32.8"/>
<text text-anchor="middle" x="153" y="-93" font-family="Times,serif" font-size="14.00" fill="#000000">离开瘤胃</text>
</g>
<!-- 饲料蛋白质 -->
<g id="node1" class="node">
<title>饲料蛋白质</title>
<polygon fill="none" stroke="#000000" points="273.212,-318.4 166.788,-318.4 166.788,-282.4 273.212,-282.4 273.212,-318.4"/>
<text text-anchor="middle" x="220" y="-296.2" font-family="Consolas" font-size="14.00" fill="#000000">饲料蛋白质</text>
</g>
<!-- 未被微生物消化 -->
<g id="node5" class="node">
<title>未被微生物消化</title>
<polygon fill="none" stroke="#000000" points="132.4098,-233.6 21.5902,-233.6 21.5902,-197.6 132.4098,-197.6 132.4098,-233.6"/>
<text text-anchor="middle" x="77" y="-211.4" font-family="Consolas" font-size="14.00" fill="#000000">未被微生物消化</text>
</g>
<!-- 饲料蛋白质&#45;&gt;未被微生物消化 -->
<g id="edge3" class="edge">
<title>饲料蛋白质&#45;&gt;未被微生物消化</title>
<path fill="none" stroke="#000000" d="M176.5389,-282.2649C160.1585,-275.3206 144.5888,-268.5447 141,-266.4 128.4824,-258.9192 115.6981,-249.2551 104.8798,-240.3673"/>
<polygon fill="#000000" stroke="#000000" points="106.9353,-237.5231 97.0271,-233.7712 102.433,-242.8831 106.9353,-237.5231"/>
</g>
<!-- 瘤胃中的游离氨基酸 -->
<g id="node6" class="node">
<title>瘤胃中的游离氨基酸</title>
<polygon fill="none" stroke="#000000" points="290.0134,-233.6 149.9866,-233.6 149.9866,-197.6 290.0134,-197.6 290.0134,-233.6"/>
<text text-anchor="middle" x="220" y="-211.4" font-family="Consolas" font-size="14.00" fill="#000000">瘤胃中的游离氨基酸</text>
</g>
<!-- 饲料蛋白质&#45;&gt;瘤胃中的游离氨基酸 -->
<g id="edge5" class="edge">
<title>饲料蛋白质&#45;&gt;瘤胃中的游离氨基酸</title>
<path fill="none" stroke="#000000" d="M220,-281.9997C220,-270.8112 220,-256.2983 220,-243.6954"/>
<polygon fill="#000000" stroke="#000000" points="223.5001,-243.6731 220,-233.6731 216.5001,-243.6731 223.5001,-243.6731"/>
</g>
<!-- 铵盐 -->
<g id="node2" class="node">
<title>铵盐</title>
<polygon fill="none" stroke="#000000" points="345,-318.4 291,-318.4 291,-282.4 345,-282.4 345,-318.4"/>
<text text-anchor="middle" x="318" y="-296.2" font-family="Consolas" font-size="14.00" fill="#000000">铵盐</text>
</g>
<!-- NH3 -->
<g id="node8" class="node">
<title>NH3</title>
<polygon fill="none" stroke="#000000" points="290,-161.6 236,-161.6 236,-125.6 290,-125.6 290,-161.6"/>
<text text-anchor="middle" x="263" y="-139.4" font-family="Consolas" font-size="14.00" fill="#000000">NH3</text>
</g>
<!-- 铵盐&#45;&gt;NH3 -->
<g id="edge8" class="edge">
<title>铵盐&#45;&gt;NH3</title>
<path fill="none" stroke="#000000" d="M316.8714,-282.3255C315.0628,-261.2974 310.462,-225.8548 299,-197.6 295.1648,-188.1461 289.539,-178.6243 283.8689,-170.2653"/>
<polygon fill="#000000" stroke="#000000" points="286.6616,-168.1529 278.0173,-162.027 280.9547,-172.2065 286.6616,-168.1529"/>
</g>
<!-- 游离氨基酸 -->
<g id="node3" class="node">
<title>游离氨基酸</title>
<polygon fill="none" stroke="#000000" points="148.8032,-318.4 57.1968,-318.4 57.1968,-282.4 148.8032,-282.4 148.8032,-318.4"/>
<text text-anchor="middle" x="103" y="-296.2" font-family="Consolas" font-size="14.00" fill="#000000">游离氨基酸</text>
</g>
<!-- 游离氨基酸&#45;&gt;瘤胃中的游离氨基酸 -->
<g id="edge10" class="edge">
<title>游离氨基酸&#45;&gt;瘤胃中的游离氨基酸</title>
<path fill="none" stroke="#000000" d="M128.0994,-282.2083C145.2184,-269.8007 168.076,-253.2338 186.7123,-239.7265"/>
<polygon fill="#000000" stroke="#000000" points="188.8991,-242.4642 194.9421,-233.7616 184.7911,-236.7963 188.8991,-242.4642"/>
</g>
<!-- 尿素 -->
<g id="node4" class="node">
<title>尿素</title>
<polygon fill="none" stroke="#000000" points="417,-318.4 363,-318.4 363,-282.4 417,-282.4 417,-318.4"/>
<text text-anchor="middle" x="390" y="-296.2" font-family="Consolas" font-size="14.00" fill="#000000">尿素</text>
</g>
<!-- 尿素&#45;&gt;NH3 -->
<g id="edge9" class="edge">
<title>尿素&#45;&gt;NH3</title>
<path fill="none" stroke="#000000" d="M379.4519,-282.0497C366.8253,-260.7624 344.432,-225.0765 321,-197.6 312.3355,-187.44 301.9044,-177.2222 292.2914,-168.4507"/>
<polygon fill="#000000" stroke="#000000" points="294.5934,-165.8139 284.8069,-161.755 289.9262,-171.031 294.5934,-165.8139"/>
</g>
<!-- 过瘤胃蛋白 -->
<g id="node10" class="node">
<title>过瘤胃蛋白</title>
<polygon fill="none" stroke="#000000" points="111.7094,-76.8 16.2906,-76.8 16.2906,-40.8 111.7094,-40.8 111.7094,-76.8"/>
<text text-anchor="middle" x="64" y="-54.6" font-family="Consolas" font-size="14.00" fill="#000000">过瘤胃蛋白</text>
</g>
<!-- 未被微生物消化&#45;&gt;过瘤胃蛋白 -->
<g id="edge4" class="edge">
<title>未被微生物消化&#45;&gt;过瘤胃蛋白</title>
<path fill="none" stroke="#000000" d="M75.4833,-197.3062C73.2327,-170.161 68.9903,-118.9904 66.3397,-87.0207"/>
<polygon fill="#000000" stroke="#000000" points="69.8214,-86.6539 65.507,-76.9773 62.8454,-87.2323 69.8214,-86.6539"/>
</g>
<!-- 微生物蛋白质 -->
<g id="node7" class="node">
<title>微生物蛋白质</title>
<polygon fill="none" stroke="#000000" points="218.4072,-161.6 111.5928,-161.6 111.5928,-125.6 218.4072,-125.6 218.4072,-161.6"/>
<text text-anchor="middle" x="165" y="-139.4" font-family="Consolas" font-size="14.00" fill="#000000">微生物蛋白质</text>
</g>
<!-- 瘤胃中的游离氨基酸&#45;&gt;微生物蛋白质 -->
<g id="edge1" class="edge">
<title>瘤胃中的游离氨基酸&#45;&gt;微生物蛋白质</title>
<path fill="none" stroke="#000000" d="M206.1212,-197.4314C199.7864,-189.1386 192.1616,-179.157 185.2074,-170.0533"/>
<polygon fill="#000000" stroke="#000000" points="187.9175,-167.8353 179.0657,-162.0133 182.3548,-172.0847 187.9175,-167.8353"/>
</g>
<!-- 瘤胃中的游离氨基酸&#45;&gt;NH3 -->
<g id="edge2" class="edge">
<title>瘤胃中的游离氨基酸&#45;&gt;NH3</title>
<path fill="none" stroke="#000000" d="M236.1384,-188.5775C239.6106,-182.7636 243.2821,-176.616 246.7583,-170.7955"/>
<polygon fill="#000000" stroke="#000000" points="232.9733,-187.0513 230.8507,-197.4314 238.9831,-190.6405 232.9733,-187.0513"/>
<polygon fill="#000000" stroke="#000000" points="249.8806,-172.3933 252.0032,-162.0133 243.8708,-168.8041 249.8806,-172.3933"/>
</g>
<!-- 微生物蛋白 -->
<g id="node11" class="node">
<title>微生物蛋白</title>
<polygon fill="none" stroke="#000000" points="217.8545,-76.8 130.1455,-76.8 130.1455,-40.8 217.8545,-40.8 217.8545,-76.8"/>
<text text-anchor="middle" x="174" y="-54.6" font-family="Consolas" font-size="14.00" fill="#000000">微生物蛋白</text>
</g>
<!-- 微生物蛋白质&#45;&gt;微生物蛋白 -->
<g id="edge7" class="edge">
<title>微生物蛋白质&#45;&gt;微生物蛋白</title>
<path fill="none" stroke="#000000" d="M166.9529,-125.1997C168.1403,-114.0112 169.6806,-99.4983 171.0182,-86.8954"/>
<polygon fill="#000000" stroke="#000000" points="174.5068,-87.1867 172.0819,-76.8731 167.5459,-86.4478 174.5068,-87.1867"/>
</g>
<!-- 氨 -->
<g id="node9" class="node">
<title>氨</title>
<polygon fill="none" stroke="#000000" points="419,-76.8 365,-76.8 365,-40.8 419,-40.8 419,-76.8"/>
<text text-anchor="middle" x="392" y="-54.6" font-family="Consolas" font-size="14.00" fill="#000000">氨</text>
</g>
<!-- NH3&#45;&gt;氨 -->
<g id="edge12" class="edge">
<title>NH3&#45;&gt;氨</title>
<path fill="none" stroke="#000000" d="M298.4011,-120.3286C316.4629,-108.4554 338.3762,-94.0503 356.458,-82.1641"/>
<polygon fill="#000000" stroke="#000000" points="296.4763,-117.4053 290.0426,-125.8231 300.3214,-123.2547 296.4763,-117.4053"/>
<polygon fill="#000000" stroke="#000000" points="358.5593,-84.9712 364.993,-76.5535 354.7142,-79.1219 358.5593,-84.9712"/>
</g>
<!-- NPN -->
<g id="node12" class="node">
<title>NPN</title>
<polygon fill="none" stroke="#000000" points="290,-76.8 236,-76.8 236,-40.8 290,-40.8 290,-76.8"/>
<text text-anchor="middle" x="263" y="-54.6" font-family="Consolas" font-size="14.00" fill="#000000">NPN</text>
</g>
<!-- NH3&#45;&gt;NPN -->
<g id="edge6" class="edge">
<title>NH3&#45;&gt;NPN</title>
<path fill="none" stroke="#000000" d="M263,-125.1997C263,-114.0112 263,-99.4983 263,-86.8954"/>
<polygon fill="#000000" stroke="#000000" points="266.5001,-86.8731 263,-76.8731 259.5001,-86.8731 266.5001,-86.8731"/>
</g>
<!-- 氨&#45;&gt;尿素 -->
<g id="edge11" class="edge">
<title>氨&#45;&gt;尿素</title>
<path fill="none" stroke="#000000" d="M391.8507,-76.8404C391.5055,-118.539 390.6501,-221.8625 390.2344,-272.0878"/>
<polygon fill="#000000" stroke="#000000" points="386.7333,-272.2121 390.1503,-282.2407 393.7331,-272.2701 386.7333,-272.2121"/>
</g>
</g>
</svg>
