<?xml version="1.0" encoding="UTF-8" standalone="no"?>
<!DOCTYPE svg PUBLIC "-//W3C//DTD SVG 1.1//EN"
 "http://www.w3.org/Graphics/SVG/1.1/DTD/svg11.dtd">
<!-- Generated by graphviz version 2.40.1 (20161225.0304)
 -->
<!-- Title: TextToVoiceExample Pages: 1 -->
<svg width="306pt" height="129pt"
 viewBox="0.00 0.00 306.00 129.30" xmlns="http://www.w3.org/2000/svg" xmlns:xlink="http://www.w3.org/1999/xlink">
<g id="graph0" class="graph" transform="scale(1 1) rotate(0) translate(4 125.3)">
<title>TextToVoiceExample</title>
<polygon fill="#ffffff" stroke="transparent" points="-4,4 -4,-125.3 302,-125.3 302,4 -4,4"/>
<text text-anchor="start" x="88.9316" y="-8.2" font-family="Times,serif" font-size="14.00" fill="#000000">语音转文本任务</text>
<g id="clust1" class="cluster">
<title>cluster_0</title>
<polygon fill="none" stroke="#000000" points="64,-36.5 64,-113.3 134,-113.3 134,-36.5 64,-36.5"/>
<text text-anchor="start" x="75.2224" y="-96.7" font-family="Times,serif" font-size="14.00" fill="#000000">气流机制</text>
</g>
<g id="clust3" class="cluster">
<title>cluster_2</title>
<polygon fill="none" stroke="#000000" points="220,-36.5 220,-113.3 290,-113.3 290,-36.5 220,-36.5"/>
<text text-anchor="start" x="236.9204" y="-96.7" font-family="Times,serif" font-size="14.00" fill="#000000">调音</text>
</g>
<g id="clust2" class="cluster">
<title>cluster_1</title>
<polygon fill="none" stroke="#000000" points="142,-36.5 142,-113.3 212,-113.3 212,-36.5 142,-36.5"/>
<text text-anchor="start" x="171.75" y="-96.7" font-family="Times,serif" font-size="14.00" fill="#000000">喉</text>
</g>
<!-- Prompt -->
<g id="node1" class="node">
<title>Prompt</title>
<polygon fill="none" stroke="#000000" points="0,-25.3 0,-99.7 54,-99.7 54,-25.3 0,-25.3"/>
<text text-anchor="middle" x="26.9902" y="-83.1" font-family="Consolas" font-size="14.00" fill="#000000">文字</text>
<polyline fill="none" stroke="#000000" points="0,-74.9 53.9804,-74.9 "/>
<text text-anchor="middle" x="26.9902" y="-58.3" font-family="Consolas" font-size="14.00" fill="#000000">情绪</text>
<polyline fill="none" stroke="#000000" points="0,-50.1 53.9804,-50.1 "/>
<text text-anchor="middle" x="26.9902" y="-33.5" font-family="Consolas" font-size="14.00" fill="#000000">extra</text>
</g>
<!-- a -->
<g id="node2" class="node">
<title>a</title>
<polygon fill="none" stroke="#d3d3d3" points="126,-80.5 72,-80.5 72,-44.5 126,-44.5 126,-80.5"/>
<text text-anchor="middle" x="99" y="-58.3" font-family="Consolas" font-size="14.00" fill="#000000">a</text>
</g>
<!-- b -->
<g id="node3" class="node">
<title>b</title>
<polygon fill="none" stroke="#d3d3d3" points="204,-80.5 150,-80.5 150,-44.5 204,-44.5 204,-80.5"/>
<text text-anchor="middle" x="177" y="-58.3" font-family="Consolas" font-size="14.00" fill="#000000">b</text>
</g>
<!-- c -->
<g id="node4" class="node">
<title>c</title>
<polygon fill="none" stroke="#d3d3d3" points="282,-80.5 228,-80.5 228,-44.5 282,-44.5 282,-80.5"/>
<text text-anchor="middle" x="255" y="-58.3" font-family="Consolas" font-size="14.00" fill="#000000">c</text>
</g>
</g>
</svg>
