<?xml version="1.0" encoding="UTF-8" standalone="no"?>
<!DOCTYPE svg PUBLIC "-//W3C//DTD SVG 1.1//EN"
 "http://www.w3.org/Graphics/SVG/1.1/DTD/svg11.dtd">
<!-- Generated by graphviz version 2.40.1 (20161225.0304)
 -->
<!-- Title: VanSoestfiberanalysis Pages: 1 -->
<svg width="350pt" height="338pt"
 viewBox="0.00 0.00 350.14 337.60" xmlns="http://www.w3.org/2000/svg" xmlns:xlink="http://www.w3.org/1999/xlink">
<g id="graph0" class="graph" transform="scale(1 1) rotate(0) translate(4 333.6)">
<title>VanSoestfiberanalysis</title>
<polygon fill="#ffffff" stroke="transparent" points="-4,4 -4,-333.6 346.1396,-333.6 346.1396,4 -4,4"/>
<text text-anchor="start" x="110.2174" y="-8.2" font-family="Times,serif" font-size="14.00" fill="#000000">Van Soest 纤维分析法</text>
<!-- 样品 -->
<g id="node1" class="node">
<title>样品</title>
<polygon fill="none" stroke="#000000" points="92.3651,-296.1442 92.3651,-311.0558 75.4935,-321.6 51.6335,-321.6 34.7618,-311.0558 34.7618,-296.1442 51.6335,-285.6 75.4935,-285.6 92.3651,-296.1442"/>
<polygon fill="none" stroke="#000000" points="96.3837,-293.9325 96.3837,-313.2675 76.6505,-325.6 50.4765,-325.6 30.7433,-313.2675 30.7433,-293.9325 50.4765,-281.6 76.6505,-281.6 96.3837,-293.9325"/>
<polygon fill="none" stroke="#000000" points="100.4022,-291.7209 100.4022,-315.4791 77.8074,-329.6 49.3195,-329.6 26.7248,-315.4791 26.7248,-291.7209 49.3195,-277.6 77.8074,-277.6 100.4022,-291.7209"/>
<text text-anchor="middle" x="63.5635" y="-299.4" font-family="Consolas" font-size="14.00" fill="#000000">样品</text>
</g>
<!-- 细胞质 -->
<g id="node2" class="node">
<title>细胞质</title>
<ellipse fill="none" stroke="#000000" cx="44.5635" cy="-210" rx="44.6271" ry="18"/>
<text text-anchor="middle" x="44.5635" y="-205.8" font-family="Consolas" font-size="14.00" fill="#000000">细胞质</text>
</g>
<!-- 样品&#45;&gt;细胞质 -->
<g id="edge2" class="edge">
<title>样品&#45;&gt;细胞质</title>
<path fill="none" stroke="#000000" d="M58.2709,-277.5272C55.7832,-265.2718 52.8131,-250.64 50.2746,-238.1347"/>
<polygon fill="#000000" stroke="#000000" points="53.6833,-237.3331 48.2639,-228.2292 46.8232,-238.7257 53.6833,-237.3331"/>
<text text-anchor="middle" x="62.5623" y="-252.4" font-family="Consolas" font-size="8.00" fill="#000000">NDS</text>
</g>
<!-- 细胞壁 -->
<g id="node3" class="node">
<title>细胞壁</title>
<polygon fill="none" stroke="#000000" points="199.9922,-202.5442 199.9922,-217.4558 173.9665,-228 137.1605,-228 111.1347,-217.4558 111.1347,-202.5442 137.1605,-192 173.9665,-192 199.9922,-202.5442"/>
<polygon fill="none" stroke="#000000" points="203.9892,-199.8481 203.9892,-220.1519 174.7448,-232 136.3821,-232 107.1378,-220.1519 107.1378,-199.8481 136.3821,-188 174.7448,-188 203.9892,-199.8481"/>
<text text-anchor="middle" x="155.5635" y="-205.8" font-family="Consolas" font-size="14.00" fill="#000000">细胞壁</text>
</g>
<!-- 样品&#45;&gt;细胞壁 -->
<g id="edge1" class="edge">
<title>样品&#45;&gt;细胞壁</title>
<path fill="none" stroke="#000000" d="M84.9014,-281.891C97.4419,-269.1324 113.4543,-252.8415 127.0645,-238.9946"/>
<polygon fill="#000000" stroke="#000000" points="129.8276,-241.1765 134.3413,-231.5913 124.8353,-236.2696 129.8276,-241.1765"/>
<text text-anchor="middle" x="123.5623" y="-252.4" font-family="Consolas" font-size="8.00" fill="#000000">NDF</text>
</g>
<!-- ADS -->
<g id="node4" class="node">
<title>ADS</title>
<polygon fill="none" stroke="#000000" points="158.26,-116.9442 158.26,-131.8558 139.1068,-142.4 112.0202,-142.4 92.867,-131.8558 92.867,-116.9442 112.0202,-106.4 139.1068,-106.4 158.26,-116.9442"/>
<text text-anchor="middle" x="125.5635" y="-120.2" font-family="Consolas" font-size="14.00" fill="#000000">ADS</text>
</g>
<!-- 细胞壁&#45;&gt;ADS -->
<g id="edge3" class="edge">
<title>细胞壁&#45;&gt;ADS</title>
<path fill="none" stroke="#000000" d="M147.8377,-187.9559C144.0243,-177.0749 139.3832,-163.8324 135.3266,-152.2573"/>
<polygon fill="#000000" stroke="#000000" points="138.558,-150.8953 131.9475,-142.6158 131.952,-153.2106 138.558,-150.8953"/>
<text text-anchor="middle" x="149.5623" y="-162.8" font-family="Consolas" font-size="8.00" fill="#000000">ADS</text>
</g>
<!-- ADF -->
<g id="node5" class="node">
<title>ADF</title>
<polygon fill="none" stroke="#000000" points="242.26,-116.9442 242.26,-131.8558 223.1068,-142.4 196.0202,-142.4 176.867,-131.8558 176.867,-116.9442 196.0202,-106.4 223.1068,-106.4 242.26,-116.9442"/>
<text text-anchor="middle" x="209.5635" y="-120.2" font-family="Consolas" font-size="14.00" fill="#000000">ADF</text>
</g>
<!-- 细胞壁&#45;&gt;ADF -->
<g id="edge4" class="edge">
<title>细胞壁&#45;&gt;ADF</title>
<path fill="none" stroke="#000000" d="M169.4698,-187.9559C176.542,-176.7452 185.1956,-163.0276 192.6508,-151.2097"/>
<polygon fill="#000000" stroke="#000000" points="195.6969,-152.9409 198.0722,-142.6158 189.7765,-149.206 195.6969,-152.9409"/>
<text text-anchor="middle" x="194.5623" y="-162.8" font-family="Consolas" font-size="8.00" fill="#000000">ADF</text>
</g>
<!-- Cellulose -->
<g id="node6" class="node">
<title>Cellulose</title>
<polygon fill="none" stroke="#000000" points="164.9458,-60.8 96.1812,-60.8 96.1812,-24.8 164.9458,-24.8 164.9458,-60.8"/>
<text text-anchor="middle" x="130.5635" y="-38.6" font-family="Consolas" font-size="14.00" fill="#000000">Cellulose</text>
</g>
<!-- ADF&#45;&gt;Cellulose -->
<g id="edge6" class="edge">
<title>ADF&#45;&gt;Cellulose</title>
<path fill="none" stroke="#000000" d="M193.1946,-107.4924C182.1629,-96.0977 167.4147,-80.864 155.0009,-68.0417"/>
<polygon fill="#000000" stroke="#000000" points="157.4777,-65.5681 148.0074,-60.818 152.4484,-70.4371 157.4777,-65.5681"/>
</g>
<!-- Lignin -->
<g id="node7" class="node">
<title>Lignin</title>
<polygon fill="none" stroke="#000000" points="236.5635,-60.8 182.5635,-60.8 182.5635,-24.8 236.5635,-24.8 236.5635,-60.8"/>
<text text-anchor="middle" x="209.5635" y="-38.6" font-family="Consolas" font-size="14.00" fill="#000000">Lignin</text>
</g>
<!-- ADF&#45;&gt;Lignin -->
<g id="edge7" class="edge">
<title>ADF&#45;&gt;Lignin</title>
<path fill="none" stroke="#000000" d="M209.5635,-106.2903C209.5635,-95.9371 209.5635,-82.7258 209.5635,-71.0383"/>
<polygon fill="#000000" stroke="#000000" points="213.0636,-70.859 209.5635,-60.8591 206.0636,-70.8591 213.0636,-70.859"/>
<text text-anchor="middle" x="217.7823" y="-81.2" font-family="Consolas" font-size="8.00" fill="#000000">ADL</text>
</g>
<!-- ADF protein -->
<g id="node8" class="node">
<title>ADF protein</title>
<polygon fill="none" stroke="#000000" points="342.2158,-60.8 254.9112,-60.8 254.9112,-24.8 342.2158,-24.8 342.2158,-60.8"/>
<text text-anchor="middle" x="298.5635" y="-38.6" font-family="Consolas" font-size="14.00" fill="#000000">ADF protein</text>
</g>
<!-- ADF&#45;&gt;ADF protein -->
<g id="edge5" class="edge">
<title>ADF&#45;&gt;ADF protein</title>
<path fill="none" stroke="#000000" d="M227.147,-108.2785C239.7136,-96.7568 256.8673,-81.0293 271.2135,-67.876"/>
<polygon fill="#000000" stroke="#000000" points="273.8422,-70.2143 278.8477,-60.8765 269.1116,-65.0547 273.8422,-70.2143"/>
</g>
</g>
</svg>
