<?xml version="1.0" encoding="UTF-8" standalone="no"?>
<!DOCTYPE svg PUBLIC "-//W3C//DTD SVG 1.1//EN"
 "http://www.w3.org/Graphics/SVG/1.1/DTD/svg11.dtd">
<!-- Generated by graphviz version 2.40.1 (20161225.0304)
 -->
<!-- Title: VividPuppetOverview Pages: 1 -->
<svg width="155pt" height="143pt"
 viewBox="0.00 0.00 154.78 142.80" xmlns="http://www.w3.org/2000/svg" xmlns:xlink="http://www.w3.org/1999/xlink">
<g id="graph0" class="graph" transform="scale(1 1) rotate(0) translate(4 138.8)">
<title>VividPuppetOverview</title>
<polygon fill="#ffffff" stroke="transparent" points="-4,4 -4,-138.8 150.7768,-138.8 150.7768,4 -4,4"/>
<text text-anchor="start" x="8" y="-8.2" font-family="Times,serif" font-size="14.00" fill="#000000">VividPuppet 整体框架</text>
<!-- manipulator -->
<g id="node1" class="node">
<title>manipulator</title>
<path fill="none" stroke="#000000" d="M43.5623,-98.3C43.5623,-98.3 103.2145,-98.3 103.2145,-98.3 109.2145,-98.3 115.2145,-104.3 115.2145,-110.3 115.2145,-110.3 115.2145,-122.3 115.2145,-122.3 115.2145,-128.3 109.2145,-134.3 103.2145,-134.3 103.2145,-134.3 43.5623,-134.3 43.5623,-134.3 37.5623,-134.3 31.5623,-128.3 31.5623,-122.3 31.5623,-122.3 31.5623,-110.3 31.5623,-110.3 31.5623,-104.3 37.5623,-98.3 43.5623,-98.3"/>
<text text-anchor="middle" x="73.3884" y="-112.1" font-family="Consolas" font-size="14.00" fill="#000000">manipulator</text>
</g>
<!-- puppet -->
<g id="node2" class="node">
<title>puppet</title>
<path fill="none" stroke="#000000" d="M58.3358,-25.3C58.3358,-25.3 88.441,-25.3 88.441,-25.3 94.441,-25.3 100.441,-31.3 100.441,-37.3 100.441,-37.3 100.441,-49.3 100.441,-49.3 100.441,-55.3 94.441,-61.3 88.441,-61.3 88.441,-61.3 58.3358,-61.3 58.3358,-61.3 52.3358,-61.3 46.3358,-55.3 46.3358,-49.3 46.3358,-49.3 46.3358,-37.3 46.3358,-37.3 46.3358,-31.3 52.3358,-25.3 58.3358,-25.3"/>
<text text-anchor="middle" x="73.3884" y="-39.1" font-family="Consolas" font-size="14.00" fill="#000000">puppet</text>
</g>
<!-- manipulator&#45;&gt;puppet -->
<g id="edge1" class="edge">
<title>manipulator&#45;&gt;puppet</title>
<path fill="none" stroke="#000000" d="M73.3884,-98.2551C73.3884,-90.1828 73.3884,-80.4764 73.3884,-71.4817"/>
<polygon fill="#000000" stroke="#000000" points="76.8885,-71.3903 73.3884,-61.3904 69.8885,-71.3904 76.8885,-71.3903"/>
</g>
</g>
</svg>
